<?xml version="1.0" encoding="UTF-8"?>
<svg width="512" height="512" viewBox="0 0 512 512" fill="none" xmlns="http://www.w3.org/2000/svg">
  <!-- Background Circle -->
  <circle cx="256" cy="256" r="248" fill="#1976D2"/>
  <circle cx="256" cy="256" r="232" fill="white"/>
  <circle cx="256" cy="256" r="216" fill="#1976D2"/>
  
  <!-- Steering Wheel Outer Ring -->
  <circle cx="256" cy="256" r="180" stroke="white" stroke-width="24" fill="none"/>
  
  <!-- Steering Wheel Inner Hub -->
  <circle cx="256" cy="256" r="60" fill="white"/>
  
  <!-- Steering Wheel Spokes -->
  <rect x="248" y="76" width="16" height="80" rx="8" fill="white"/>
  <rect x="248" y="356" width="16" height="80" rx="8" fill="white"/>
  <rect x="76" y="248" width="80" height="16" rx="8" fill="white"/>
  <rect x="356" y="248" width="80" height="16" rx="8" fill="white"/>
  
  <!-- Diagonal Spokes -->
  <rect x="142" y="142" width="16" height="80" rx="8" transform="rotate(-45 142 142)" fill="white"/>
  <rect x="312" y="312" width="16" height="80" rx="8" transform="rotate(-45 312 312)" fill="white"/>
  <rect x="358" y="142" width="16" height="80" rx="8" transform="rotate(45 358 142)" fill="white"/>
  <rect x="188" y="312" width="16" height="80" rx="8" transform="rotate(45 188 312)" fill="white"/>
  
  <!-- "L" for Lesson -->
  <path d="M236 236L256 216H276L256 236H236Z" fill="white"/>
  <path d="M236 256V236H256V276H236V256Z" fill="white"/>
  <path d="M256 276H276V256H256V276Z" fill="white"/>
</svg> 