<?xml version="1.0" standalone="no"?>
<!DOCTYPE svg PUBLIC "-//W3C//DTD SVG 20010904//EN" "http://www.w3.org/TR/2001/REC-SVG-20010904/DTD/svg10.dtd">
<svg version="1.0" xmlns="http://www.w3.org/2000/svg" width="512pt" height="512pt" viewBox="0 0 512 512" preserveAspectRatio="xMidYMid meet">
  <g transform="translate(0.000000,512.000000) scale(0.100000,-0.100000)" fill="#000000" stroke="none">
    <path d="M2380 4619 c-344 -31 -623 -120 -900 -286 -230 -138 -450 -339 -605 -552 -320 -440 -456 -964 -386 -1491 20 -149 86 -374 153 -523 332 -736 1068 -1225 1873 -1243 126 -3 190 0 290 14 728 101 1343 587 1630 1292 74 182 130 405 151 605 24 229 -2 553 -61 770 -221 809 -884 1373 -1725 1470 -108 13 -322 19 -420 12 -36 -2 -36 -2 -5 -4 17 -1 55 -8 85 -17 139 -38 175 -153 81 -259 -34 -39 -109 -79 -177 -95 l-44 -10 0 -175 0 -175 41 -10 c56 -14 156 -71 184 -105 58 -70 63 -147 15 -217 -32 -48 -124 -105 -186 -115 l-44 -8 0 -173 0 -172 23 -5 c57 -14 170 -83 207 -126 69 -81 67 -179 -6 -255 -39 -40 -121 -89 -169 -100 -19 -4 -37 -8 -39 -9 -2 -1 -3 -80 -3 -176 l0 -175 39 -7 c47 -9 141 -56 182 -90 87 -74 91 -199 10 -280 -43 -43 -151 -102 -210 -115 -35 -8 -36 -9 -39 -63 -8 -129 -19 -192 -49 -292 -116 -386 -444 -687 -838 -770 -119 -25 -321 -25 -440 0 -394 83 -722 384 -838 770 -30 100 -41 163 -49 292 -3 54 -4 55 -39 63 -59 13 -167 72 -210 115 -81 81 -77 206 10 280 41 34 135 81 182 90 l39 7 0 175 c0 96 -1 175 -2 176 -2 1 -20 5 -39 9 -48 11 -130 60 -169 100 -73 76 -75 174 -6 255 37 43 150 112 207 126 l23 5 0 172 0 173 -44 8 c-62 10 -154 67 -186 115 -48 70 -43 147 15 217 28 34 128 91 184 105 l41 10 0 175 0 175 -44 10 c-68 16 -143 56 -177 95 -94 106 -58 221 81 259 30 9 68 16 85 17 31 2 31 2 -5 4 -22 1 -87 -2 -145 -7z"/>
  </g>
</svg>
